# xmcd
#
# Track frame offsets:
#	150
#	15059
#	26987
#	40724
#	61435
#	83603
#	103075
#	119937
#	138856
#	155554
#	173953
#	194426
#	207813
#
# Disc length: 3022 seconds
#
# Revision: 0
# Processed by: cddbd v1.4PL0 Copyright (c) Steve Scherf et al.
# Submitted via: dBpowerAMP V4.0
#
DISCID=ad0bcc0d
DTITLE=Blue Voodoo, The - Ride
DYEAR=2002
DGENRE=Blues
TTITLE0=Rust
TTITLE1=Look Me In The Eye
TTITLE2=Keep On Movin
TTITLE3=Luxury
TTITLE4=Out Of The Night
TTITLE5=Roberts Blues
TTITLE6=Freeway
TTITLE7=Bad News
TTITLE8=Pretty Things
TTITLE9=No Ordinary Days
TTITLE10=Blue Latin Moon
TTITLE11=The Delta
TTITLE12=Sout Of Orleans (shine on)
EXTD=
EXTT0=
EXTT1=
EXTT2=
EXTT3=
EXTT4=
EXTT5=
EXTT6=
EXTT7=
EXTT8=
EXTT9=
EXTT10=
EXTT11=
EXTT12=
PLAYORDER=
